<?xml version="1.0" encoding="UTF-8" standalone="no"?>
<svg
   xmlns:dc="http://purl.org/dc/elements/1.1/"
   xmlns:cc="http://creativecommons.org/ns#"
   xmlns:rdf="http://www.w3.org/1999/02/22-rdf-syntax-ns#"
   xmlns:svg="http://www.w3.org/2000/svg"
   xmlns="http://www.w3.org/2000/svg"
   xmlns:sodipodi="http://sodipodi.sourceforge.net/DTD/sodipodi-0.dtd"
   xmlns:inkscape="http://www.inkscape.org/namespaces/inkscape"
   id="e6e81613-d20c-4ebb-a955-624773ea2c94"
   data-name="Layer 1"
   width="491.20532"
   height="577.67291"
   viewBox="0 0 491.20532 577.67291"
   version="1.1"
   sodipodi:docname="compete.svg"
   inkscape:version="1.0 (b51213c273, 2020-08-10)">
  <metadata
     id="metadata153">
    <rdf:RDF>
      <cc:Work
         rdf:about="">
        <dc:format>image/svg+xml</dc:format>
        <dc:type
           rdf:resource="http://purl.org/dc/dcmitype/StillImage" />
        <dc:title></dc:title>
      </cc:Work>
    </rdf:RDF>
  </metadata>
  <defs
     id="defs151" />
  <sodipodi:namedview
     pagecolor="#ffffff"
     bordercolor="#666666"
     borderopacity="1"
     objecttolerance="10"
     gridtolerance="10"
     guidetolerance="10"
     inkscape:pageopacity="0"
     inkscape:pageshadow="2"
     inkscape:window-width="1366"
     inkscape:window-height="710"
     id="namedview149"
     showgrid="false"
     fit-margin-top="0"
     fit-margin-left="0"
     fit-margin-right="0"
     fit-margin-bottom="0"
     inkscape:zoom="0.42544654"
     inkscape:cx="548.81848"
     inkscape:cy="475.14756"
     inkscape:window-x="0"
     inkscape:window-y="0"
     inkscape:window-maximized="1"
     inkscape:current-layer="e6e81613-d20c-4ebb-a955-624773ea2c94" />
  <ellipse
     cx="363.58087"
     cy="562.3858"
     rx="53"
     ry="5.6081438"
     fill="#e6e6e6"
     id="ellipse138"
     style="stroke-width:1.67454" />
  <polygon
     points="309.127,350.864 312.127,350.864 306.127,751.864 303.127,751.864 "
     fill="#3f3d56"
     id="polygon6"
     transform="translate(-0.00261279,-178.55274)" />
  <polygon
     points="379.127,350.864 382.127,350.864 388.127,751.864 385.127,751.864 "
     fill="#3f3d56"
     id="polygon8"
     transform="translate(-0.00261279,-178.55274)" />
  <rect
     x="310.12469"
     y="180.31171"
     width="70"
     height="3"
     fill="#3f3d56"
     id="rect10" />
  <rect
     x="310.12469"
     y="232.31171"
     width="70"
     height="3"
     fill="#3f3d56"
     id="rect12" />
  <rect
     x="309.12469"
     y="284.31171"
     width="73"
     height="3"
     fill="#3f3d56"
     id="rect14" />
  <rect
     x="309.12469"
     y="336.31171"
     width="74"
     height="3"
     fill="#3f3d56"
     id="rect16" />
  <rect
     x="308.12469"
     y="388.31171"
     width="76"
     height="3"
     fill="#3f3d56"
     id="rect18" />
  <rect
     x="307.12469"
     y="440.31171"
     width="77"
     height="3"
     fill="#3f3d56"
     id="rect20" />
  <rect
     x="306.12469"
     y="492.31171"
     width="79"
     height="3"
     fill="#3f3d56"
     id="rect22" />
  <rect
     x="304.12469"
     y="544.31171"
     width="82"
     height="3"
     fill="#3f3d56"
     id="rect24" />
  <circle
     cx="341.79178"
     cy="325.66467"
     r="42.012329"
     fill="#2f2e41"
     id="circle26" />
  <rect
     x="284.69589"
     y="414.31528"
     width="12.763278"
     height="22.867559"
     transform="rotate(-10.260826)"
     fill="#2f2e41"
     id="rect28"
     style="stroke-width:1" />
  <rect
     x="259.1694"
     y="414.31522"
     width="12.763278"
     height="22.867559"
     transform="rotate(-10.260826)"
     fill="#2f2e41"
     id="rect30"
     style="stroke-width:1" />
  <ellipse
     cx="7.8840017"
     cy="512.12701"
     rx="10.63602"
     ry="3.9885299"
     transform="rotate(-40.26106)"
     fill="#2f2e41"
     id="ellipse32" />
  <ellipse
     cx="29.530037"
     cy="524.62433"
     rx="10.63605"
     ry="3.9885299"
     transform="rotate(-40.26106)"
     fill="#2f2e41"
     id="ellipse34" />
  <circle
     cx="338.85056"
     cy="315.38821"
     r="14.35864"
     fill="#fff"
     id="circle36"
     style="fill:#ffffff" />
  <circle
     cx="332.94919"
     cy="310.24142"
     r="4.7862201"
     fill="#3f3d56"
     id="circle38" />
  <path
     d="m 374.93364,279.95974 c 0.63177,-15.55359 -12.77313,-28.7276 -29.9408,-29.42493 -17.16767,-0.69733 -31.59692,11.346 -32.22873,26.8996 -0.63181,15.5536 11.30191,19.08746 28.46955,19.78485 17.16764,0.69739 33.0682,-1.70593 33.69998,-17.25952 z"
     fill="#f5cb5c"
     id="path40" />
  <ellipse
     cx="-242.27531"
     cy="366.39044"
     rx="6.59448"
     ry="21.006161"
     transform="rotate(-77.0899)"
     fill="#2f2e41"
     id="ellipse42" />
  <ellipse
     cx="-237.21777"
     cy="449.83856"
     rx="6.59448"
     ry="21.006161"
     transform="rotate(-77.0899)"
     fill="#2f2e41"
     id="ellipse44" />
  <path
     d="m 353.33049,342.22121 a 9.57243,9.57243 0 1 1 -18.8353,3.42884 l -0.003,-0.0185 c -0.94175,-5.20215 3.08038,-7.043 8.28256,-7.98474 5.20218,-0.94174 9.61438,-0.62773 10.55609,4.5744 z"
     fill="#fff"
     id="path46"
     style="fill:#ffffff" />
  <path
     d="M 486.65215,76.687742 217.72954,100.78957 a 5.00588,5.00588 0 0 1 -5.42636,-4.533708 l -5.97864,-66.7082 a 5.00588,5.00588 0 0 1 4.53371,-5.42637 L 479.78085,0.01946246 a 5.00589,5.00589 0 0 1 5.42637,4.53371004 l 5.97864,66.7082095 a 5.00588,5.00588 0 0 1 -4.53371,5.42636 z M 211.03678,26.113302 a 3.00328,3.00328 0 0 0 -2.72022,3.25582 l 5.97863,66.70821 a 3.00329,3.00329 0 0 0 3.25582,2.72023 l 268.9226,-24.10183 a 3.00328,3.00328 0 0 0 2.72023,-3.25582 L 483.21521,4.7317025 a 3.0033,3.0033 0 0 0 -3.25583,-2.72023 z"
     fill="#e6e6e6"
     id="path48" />
  <circle
     cx="249.15414"
     cy="59.330868"
     r="21"
     fill="#3f3d56"
     id="circle50" />
  <path
     d="m 296.21081,41.057362 a 3.5000025,3.5000025 0 0 0 0.62486,6.97206 l 164.34129,-14.72887 a 3.5000025,3.5000025 0 1 0 -0.62486,-6.97206 z"
     fill="#e6e6e6"
     id="path52" />
  <path
     d="m 298.08539,61.973532 a 3.5,3.5 0 1 0 0.62486,6.972 l 164.3413,-14.72887 a 3.5,3.5 0 0 0 -0.62487,-6.97205 z"
     fill="#e6e6e6"
     id="path54" />
  <ellipse
     cx="52.437359"
     cy="389.10632"
     rx="21.533689"
     ry="6.7600698"
     transform="rotate(-69.08217)"
     fill="#2f2e41"
     id="ellipse56" />
  <circle
     cx="-66.038887"
     cy="357.57159"
     r="43.067348"
     transform="rotate(-80.78252)"
     fill="#2f2e41"
     id="circle58" />
  <rect
     x="322.75052"
     y="156.26242"
     width="13.08374"
     height="23.44171"
     fill="#2f2e41"
     id="rect60" />
  <rect
     x="348.918"
     y="156.26242"
     width="13.08374"
     height="23.44171"
     fill="#2f2e41"
     id="rect62" />
  <ellipse
     cx="333.65366"
     cy="179.97672"
     rx="10.90314"
     ry="4.0886798"
     fill="#2f2e41"
     id="ellipse64" />
  <ellipse
     cx="359.82114"
     cy="179.43158"
     rx="10.90314"
     ry="4.0886798"
     fill="#2f2e41"
     id="ellipse66" />
  <path
     d="m 300.59942,82.411352 c -3.47748,-15.57379 7.63867,-31.31045 24.82861,-35.14883 17.18994,-3.83838 33.94422,5.67508 37.42169,21.24887 3.47747,15.57379 -7.91491,21.31765 -25.10485,25.156 -17.18994,3.83835 -33.66797,4.31778 -37.14545,-11.25604 z"
     fill="#f5cb5c"
     id="path68" />
  <ellipse
     cx="33.338089"
     cy="309.43332"
     rx="6.7600698"
     ry="21.53368"
     transform="rotate(-64.62574)"
     fill="#2f2e41"
     id="ellipse70" />
  <circle
     cx="82.898193"
     cy="516.07025"
     r="43.067329"
     fill="#2f2e41"
     id="circle72" />
  <rect
     x="63.272575"
     y="549.86993"
     width="13.08374"
     height="23.44171"
     fill="#2f2e41"
     id="rect74" />
  <rect
     x="89.440063"
     y="549.86993"
     width="13.08374"
     height="23.44171"
     fill="#2f2e41"
     id="rect76" />
  <ellipse
     cx="74.175659"
     cy="573.58423"
     rx="10.90314"
     ry="4.0886798"
     fill="#2f2e41"
     id="ellipse78" />
  <ellipse
     cx="100.3432"
     cy="573.03906"
     rx="10.90314"
     ry="4.0886798"
     fill="#2f2e41"
     id="ellipse80" />
  <circle
     cx="83.988518"
     cy="505.16711"
     r="14.71922"
     fill="#ffffff"
     id="circle82" />
  <circle
     cx="83.988518"
     cy="505.16711"
     r="4.9064202"
     fill="#3f3d56"
     id="circle84"
     style="fill:#4d4d4d" />
  <path
     d="m 41.121397,476.01888 c -3.47748,-15.5738 7.63865,-31.31043 24.82865,-35.1488 17.19,-3.83837 33.94421,5.67511 37.421693,21.24891 3.47748,15.5738 -7.914923,21.31768 -25.104863,25.156 -17.18994,3.83832 -33.66795,4.31774 -37.14548,-11.25611 z"
     fill="#e6e6e6"
     id="path86" />
  <ellipse
     cx="-297.53061"
     cy="229.32726"
     rx="21.533689"
     ry="6.7600698"
     transform="rotate(-69.08217)"
     fill="#2f2e41"
     id="ellipse88" />
  <circle
     cx="-376.33295"
     cy="130.14128"
     r="43.067348"
     transform="rotate(-80.78252)"
     fill="#2f2e41"
     id="circle90" />
  <rect
     x="48.553337"
     y="426.11951"
     width="13.08374"
     height="23.44171"
     fill="#2f2e41"
     id="rect92" />
  <rect
     x="74.720818"
     y="426.11951"
     width="13.08374"
     height="23.44171"
     fill="#2f2e41"
     id="rect94" />
  <ellipse
     cx="59.456478"
     cy="449.8338"
     rx="10.90314"
     ry="4.0886798"
     fill="#2f2e41"
     id="ellipse96" />
  <ellipse
     cx="85.623962"
     cy="449.28864"
     rx="10.90314"
     ry="4.0886798"
     fill="#2f2e41"
     id="ellipse98" />
  <circle
     cx="69.269279"
     cy="381.41669"
     r="14.71922"
     fill="#fff"
     id="circle100"
     style="fill:#ffffff" />
  <circle
     cx="69.269279"
     cy="381.41669"
     r="4.9064202"
     fill="#3f3d56"
     id="circle102" />
  <path
     d="m 26.402217,352.26842 c -3.47748,-15.57379 7.63867,-31.31045 24.82861,-35.14883 17.18994,-3.83838 33.94422,5.67508 37.42169,21.24887 3.47747,15.57379 -7.91491,21.31765 -25.10486,25.156 -17.18995,3.83835 -33.66796,4.31778 -37.14544,-11.25604 z"
     fill="#f5cb5c"
     id="path104" />
  <ellipse
     cx="-327.98685"
     cy="177.33014"
     rx="6.7600698"
     ry="21.53368"
     transform="rotate(-64.62574)"
     fill="#2f2e41"
     id="ellipse106" />
  <path
     d="m 47.024407,407.85677 c 0,4.21515 10.85327,12.53857 22.89655,12.53857 12.04328,0 23.33514,-11.867 23.33514,-16.08209 0,-4.21509 -11.29193,0.81775 -23.33514,0.81775 -12.04321,0 -22.89655,-1.48938 -22.89655,2.72577 z"
     fill="#fff"
     id="path108"
     style="fill:#ffffff" />
  <ellipse
     cx="-276.95496"
     cy="370.3212"
     rx="21.533689"
     ry="6.7600698"
     transform="rotate(-69.08217)"
     fill="#2f2e41"
     id="ellipse110" />
  <circle
     cx="-392.2196"
     cy="282.70361"
     r="43.067348"
     transform="rotate(-80.78252)"
     fill="#2f2e41"
     id="circle112" />
  <polygon
     points="207.127,672.864 196.604,668.233 196.604,644.792 209.687,644.792 "
     fill="#2f2e41"
     id="polygon114"
     transform="translate(-0.00261279,-178.55274)" />
  <ellipse
     cx="-54.776848"
     cy="530.10388"
     rx="4.0886798"
     ry="10.90314"
     transform="rotate(-28.23232)"
     fill="#2f2e41"
     id="ellipse116" />
  <polygon
     points="235.651,672.937 225.127,668.306 225.127,644.864 238.211,644.864 "
     fill="#2f2e41"
     id="polygon118"
     transform="translate(-0.00261279,-178.55274)" />
  <ellipse
     cx="-29.680843"
     cy="543.66119"
     rx="4.0886798"
     ry="10.90314"
     transform="rotate(-28.23232)"
     fill="#2f2e41"
     id="ellipse120" />
  <circle
     cx="217.31688"
     cy="421.53601"
     r="14.71922"
     fill="#fff"
     id="circle122"
     style="fill:#ffffff" />
  <circle
     cx="217.31688"
     cy="421.53601"
     r="4.9064202"
     fill="#3f3d56"
     id="circle124" />
  <path
     d="m 174.44981,392.38773 c -3.47748,-15.57379 7.63867,-31.31046 24.82862,-35.14884 17.18995,-3.83838 33.94421,5.67508 37.42169,21.24888 3.47748,15.5738 -7.91492,21.31765 -25.10486,25.156 -17.18994,3.83835 -33.66797,4.31778 -37.14545,-11.25604 z"
     fill="#f2f2f2"
     id="path126" />
  <ellipse
     cx="-101.78644"
     cy="425.15277"
     rx="6.7600698"
     ry="21.53368"
     transform="rotate(-36.4501)"
     fill="#2f2e41"
     id="ellipse128" />
  <path
     d="m 237.23939,454.64571 c 0,-3.474 -8.945,-10.334 -18.8708,-10.334 -9.9258,0 -19.23228,9.78051 -19.23228,13.25448 0,3.47397 9.30655,-0.674 19.23228,-0.674 9.92573,0 18.8708,1.22755 18.8708,-2.24648 z"
     fill="#fff"
     id="path130"
     style="fill:#ffffff" />
  <ellipse
     cx="223.69621"
     cy="548.84131"
     rx="53"
     ry="5.560389"
     fill="#e6e6e6"
     id="ellipse136"
     style="stroke-width:1.66739" />
  <path
     d="M 292.17147,313.44972 24.634489,277.05981 a 5.00588,5.00588 0 0 1 -4.28049,-5.62827 l 9.026776,-66.3645 a 5.0059,5.0059 0 0 1 5.628273,-4.28049 l 267.537012,36.3899 a 5.00589,5.00589 0 0 1 4.2805,5.62827 l -9.02679,66.36449 a 5.00589,5.00589 0 0 1 -5.6283,4.28051 z M 34.739498,202.7683 a 3.00328,3.00328 0 0 0 -3.376968,2.5683 l -9.026778,66.36448 a 3.00327,3.00327 0 0 0 2.568297,3.37697 l 267.536981,36.38992 a 3.00327,3.00327 0 0 0 3.37695,-2.5683 l 9.02675,-66.3645 a 3.00329,3.00329 0 0 0 -2.5683,-3.37697 z"
     fill="#e6e6e6"
     id="path140" />
  <circle
     cx="-25.269962"
     cy="250.7639"
     r="21"
     fill="#f5cb5c"
     id="circle142"
     transform="rotate(-20.582948)" />
  <path
     d="m 114.44682,236.30455 a 3.5000035,3.5000035 0 1 0 -0.94343,6.93614 l 163.49452,22.23824 a 3.5,3.5 0 1 0 0.94344,-6.93613 z"
     fill="#e6e6e6"
     id="path144" />
  <path
     d="m 111.61651,257.11295 a 3.5000021,3.5000021 0 1 0 -0.94345,6.93613 l 163.49453,22.23825 a 3.5000042,3.5000042 0 0 0 0.94344,-6.93614 z"
     fill="#e6e6e6"
     id="path146" />
</svg>
