<?xml version="1.0" encoding="UTF-8" standalone="no"?>
<svg
   xmlns:dc="http://purl.org/dc/elements/1.1/"
   xmlns:cc="http://creativecommons.org/ns#"
   xmlns:rdf="http://www.w3.org/1999/02/22-rdf-syntax-ns#"
   xmlns:svg="http://www.w3.org/2000/svg"
   xmlns="http://www.w3.org/2000/svg"
   xmlns:sodipodi="http://sodipodi.sourceforge.net/DTD/sodipodi-0.dtd"
   xmlns:inkscape="http://www.inkscape.org/namespaces/inkscape"
   version="1.1"
   id="Layer_1"
   x="0px"
   y="0px"
   viewBox="0 0 469.333 469.333"
   style="enable-background:new 0 0 469.333 469.333;"
   xml:space="preserve"
   sodipodi:docname="free.svg"
   inkscape:version="1.0.2 (394de47547, 2021-03-26)"><metadata
   id="metadata47"><rdf:RDF><cc:Work
       rdf:about=""><dc:format>image/svg+xml</dc:format><dc:type
         rdf:resource="http://purl.org/dc/dcmitype/StillImage" /></cc:Work></rdf:RDF></metadata><defs
   id="defs45" /><sodipodi:namedview
   pagecolor="#ffffff"
   bordercolor="#666666"
   borderopacity="1"
   objecttolerance="10"
   gridtolerance="10"
   guidetolerance="10"
   inkscape:pageopacity="0"
   inkscape:pageshadow="2"
   inkscape:window-width="761"
   inkscape:window-height="484"
   id="namedview43"
   showgrid="false"
   inkscape:zoom="0.9694609"
   inkscape:cx="234.6665"
   inkscape:cy="234.6665"
   inkscape:window-x="0"
   inkscape:window-y="0"
   inkscape:window-maximized="0"
   inkscape:current-layer="Layer_1" />
<g
   id="g10"
   style="fill:#ffffff">
	<g
   id="g8"
   style="fill:#ffffff">
		<g
   id="g6"
   style="fill:#ffffff">
			<path
   d="M451.125,222.708L250.292,21.875C236.396,7.979,217.167,0,197.5,0H42.667C19.146,0,0,19.135,0,42.667V197.49     c0,19.927,7.771,38.688,21.875,52.802l200.833,200.833c11.75,11.74,27.375,18.208,43.958,18.208s32.208-6.469,43.958-18.208     l140.5-140.5c11.75-11.729,18.208-27.344,18.208-43.958S462.875,234.437,451.125,222.708z M115.501,130.589l-22.626,22.63     c-2.083,2.083-4.813,3.125-7.542,3.125c-2.729,0-5.458-1.042-7.542-3.125c-4.167-4.167-4.167-10.917,0-15.083l30.156-30.161     c0,0,0.005-0.01,0.01-0.016c0.005-0.005,0.01-0.005,0.01-0.005l30.156-30.161c4-4,11.083-4,15.083,0l30.167,30.167     c4.167,4.167,4.167,10.917,0,15.083c-4.167,4.167-10.917,4.167-15.083,0l-22.625-22.625l-15.083,15.086l15.083,15.091     c4.167,4.167,4.167,10.917,0,15.083c-2.083,2.083-4.813,3.125-7.542,3.125c-2.729,0-5.458-1.042-7.542-3.125L115.501,130.589z      M175.833,246.854c-2.729,0-5.458-1.042-7.542-3.125c-4.167-4.167-4.167-10.927,0-15.083l15.104-15.094     c4.146-4.156,4.146-10.927,0-15.094l-7.563-7.531l-22.625,22.625c-4.167,4.167-10.917,4.167-15.083,0     c-4.167-4.167-4.167-10.917,0-15.083l29.896-29.875c0.083-0.104,0.167-0.198,0.271-0.292c0.083-0.094,0.188-0.188,0.292-0.281     l29.896-29.885c4.167-4.167,10.917-4.167,15.083,0l15.083,15.083c12.479,12.479,12.479,32.771,0,45.25     c-5.625,5.625-12.979,8.906-20.875,9.323c-0.417,7.594-3.521,15.063-9.292,20.844l-15.104,15.094     C181.292,245.812,178.562,246.854,175.833,246.854z M243.729,288.979c4.167,4.167,4.167,10.917,0,15.083     c-2.083,2.083-4.813,3.125-7.542,3.125c-2.729,0-5.458-1.042-7.542-3.125l-30.167-30.167c-4.167-4.167-4.167-10.917,0-15.083     l60.333-60.344c2-2,4.708-3.125,7.542-3.125s5.542,1.125,7.542,3.125l30.167,30.177c4.167,4.167,4.167,10.917,0,15.083     c-4.167,4.167-10.917,4.167-15.083,0l-22.625-22.635l-15.087,15.09l15.087,15.087c4.167,4.167,4.167,10.917,0,15.083     c-2.083,2.083-4.813,3.125-7.542,3.125c-2.729,0-5.458-1.042-7.542-3.125l-15.085-15.085l-15.082,15.085L243.729,288.979z      M364.396,304.062c-4.167,4.167-10.917,4.167-15.083,0l-22.625-22.625l-15.083,15.083l15.083,15.083     c4.167,4.167,4.167,10.917,0,15.083c-2.083,2.083-4.813,3.125-7.542,3.125s-5.458-1.042-7.542-3.125l-15.083-15.083     l-15.083,15.083l22.625,22.635c4.167,4.167,4.167,10.917,0,15.083c-2.083,2.083-4.813,3.125-7.542,3.125     c-2.729,0-5.458-1.042-7.542-3.125l-30.167-30.177c-4.167-4.167-4.167-10.917,0-15.083l60.333-60.333     c4.167-4.167,10.917-4.167,15.083,0l30.167,30.167C368.563,293.146,368.563,299.896,364.396,304.062z"
   id="path2"
   style="fill:#ffffff" />
			<path
   d="M206,186.51h0.021c2.854,0,5.521-1.115,7.542-3.125c4.167-4.156,4.167-10.927,0-15.083l-7.542-7.542l-15.083,15.083     l7.542,7.531C200.5,185.406,203.167,186.51,206,186.51z"
   id="path4"
   style="fill:#ffffff" />
		</g>
	</g>
</g>
<g
   id="g12"
   style="fill:#ffffff">
</g>
<g
   id="g14"
   style="fill:#ffffff">
</g>
<g
   id="g16"
   style="fill:#ffffff">
</g>
<g
   id="g18"
   style="fill:#ffffff">
</g>
<g
   id="g20"
   style="fill:#ffffff">
</g>
<g
   id="g22"
   style="fill:#ffffff">
</g>
<g
   id="g24"
   style="fill:#ffffff">
</g>
<g
   id="g26"
   style="fill:#ffffff">
</g>
<g
   id="g28"
   style="fill:#ffffff">
</g>
<g
   id="g30"
   style="fill:#ffffff">
</g>
<g
   id="g32"
   style="fill:#ffffff">
</g>
<g
   id="g34"
   style="fill:#ffffff">
</g>
<g
   id="g36"
   style="fill:#ffffff">
</g>
<g
   id="g38"
   style="fill:#ffffff">
</g>
<g
   id="g40"
   style="fill:#ffffff">
</g>
</svg>
