<?xml version="1.0" encoding="UTF-8" standalone="no"?>
<svg
   xmlns:dc="http://purl.org/dc/elements/1.1/"
   xmlns:cc="http://creativecommons.org/ns#"
   xmlns:rdf="http://www.w3.org/1999/02/22-rdf-syntax-ns#"
   xmlns:svg="http://www.w3.org/2000/svg"
   xmlns="http://www.w3.org/2000/svg"
   xmlns:sodipodi="http://sodipodi.sourceforge.net/DTD/sodipodi-0.dtd"
   xmlns:inkscape="http://www.inkscape.org/namespaces/inkscape"
   id="Bold"
   enable-background="new 0 0 24 24"
   height="490.67401"
   viewBox="0 0 24 23.000344"
   width="512"
   version="1.1"
   sodipodi:docname="github.svg"
   inkscape:version="1.0.1 (3bc2e813f5, 2020-09-07)">
  <metadata
     id="metadata9">
    <rdf:RDF>
      <cc:Work
         rdf:about="">
        <dc:format>image/svg+xml</dc:format>
        <dc:type
           rdf:resource="http://purl.org/dc/dcmitype/StillImage" />
      </cc:Work>
    </rdf:RDF>
  </metadata>
  <defs
     id="defs7" />
  <sodipodi:namedview
     pagecolor="#ffffff"
     bordercolor="#666666"
     borderopacity="1"
     objecttolerance="10"
     gridtolerance="10"
     guidetolerance="10"
     inkscape:pageopacity="0"
     inkscape:pageshadow="2"
     inkscape:window-width="1366"
     inkscape:window-height="710"
     id="namedview5"
     showgrid="false"
     inkscape:zoom="0.88867188"
     inkscape:cx="256"
     inkscape:cy="219.01963"
     inkscape:window-x="0"
     inkscape:window-y="0"
     inkscape:window-maximized="1"
     inkscape:current-layer="Bold"
     inkscape:document-rotation="0" />
  <path
     d="M 12,0 C 5.37,0 0,5.28 0,11.792 c 0,5.211 3.438,9.63 8.205,11.188 0.6,0.111 0.82,-0.254 0.82,-0.567 0,-0.28 -0.01,-1.022 -0.015,-2.005 C 5.672,21.119 4.968,18.826 4.968,18.826 4.422,17.465 3.633,17.101 3.633,17.101 2.546,16.37 3.717,16.385 3.717,16.385 4.922,16.467 5.555,17.6 5.555,17.6 6.625,19.403 8.364,18.882 9.05,18.581 9.158,17.818 9.467,17.299 9.81,17.004 7.145,16.709 4.344,15.695 4.344,11.177 4.344,9.89 4.809,8.838 5.579,8.013 5.444,7.715 5.039,6.516 5.684,4.892 c 0,0 1.005,-0.316 3.3,1.209 0.96,-0.262 1.98,-0.392 3,-0.398 1.02,0.006 2.04,0.136 3,0.398 2.28,-1.525 3.285,-1.209 3.285,-1.209 0.645,1.624 0.24,2.823 0.12,3.121 0.765,0.825 1.23,1.877 1.23,3.164 0,4.53 -2.805,5.527 -5.475,5.817 0.42,0.354 0.81,1.077 0.81,2.182 0,1.578 -0.015,2.846 -0.015,3.229 0,0.309 0.21,0.678 0.825,0.56 C 20.565,21.417 24,16.995 24,11.792 24,5.28 18.627,0 12,0 Z"
     id="path2"
     style="fill:#e8eddf;fill-opacity:1" />
</svg>
